<?xml version="1.0" encoding="utf-8"?>
<!-- Generator: Adobe Illustrator 17.0.0, SVG Export Plug-In . SVG Version: 6.00 Build 0)  -->
<!DOCTYPE svg PUBLIC "-//W3C//DTD SVG 1.1//EN" "http://www.w3.org/Graphics/SVG/1.1/DTD/svg11.dtd">
<svg version="1.1" id="Layer_1" xmlns="http://www.w3.org/2000/svg" xmlns:xlink="http://www.w3.org/1999/xlink" x="0px" y="0px"
	 width="41.036px" height="80px" viewBox="1.631 11.438 41.036 80" enable-background="new 1.631 11.438 41.036 80"
	 xml:space="preserve">
<g id="Layer_2">
	<polygon fill="#FFFFFF" points="10.785,15.844 42.667,15.844 40.486,31.94 35.712,76.067 36.416,86.488 17.036,86.488 
		17.032,73.535 	"/>
	<polygon fill="#F7B0BA" points="12.022,20.843 26.725,20.245 41.99,20.843 35.426,73.427 17.998,73.427 	"/>
	<path fill="#6A489D" d="M41.762,14.939H11.69c-0.453,0-0.906,0.361-0.906,0.906v6.885v0.18l6.248,50.626l0.004,12.952
		c0,0.453,0.361,0.906,0.906,0.906H35.51c0.453,0,0.906-0.361,0.906-0.906v-13.04l6.248-50.626v-0.18V22.55l0.004-6.705
		C42.667,15.392,42.306,14.939,41.762,14.939z M38.776,16.75h2.084l-0.004,2.897c-0.453-0.18-0.814-0.272-1.266-0.272h-0.814V16.75z
		 M35.057,16.662h1.992v2.625h-1.992V16.662z M31.346,16.662h1.992v2.625h-1.992V16.662z M27.54,16.662h1.992v2.625H27.54V16.662z
		 M23.828,16.662l1.992-0.004v2.625l-1.992,0.004V16.662z M20.025,16.662h1.992v2.625h-1.992V16.662z M16.31,16.662h1.992v2.625
		H16.31V16.662z M12.507,16.658h1.992v2.625h-0.633c-0.453,0-0.906,0.092-1.359,0.272C12.507,19.555,12.507,16.658,12.507,16.658z
		 M34.604,85.674H18.847v-1.359h15.757V85.674z M23.376,82.592c0.361-1.539,1.719-2.625,3.35-2.625s2.989,1.086,3.442,2.625H23.376z
		 M34.697,82.592H31.98c-0.453-2.445-2.625-4.348-5.162-4.348s-4.801,1.903-5.162,4.348h-2.717V74.26h15.757L34.697,82.592
		L34.697,82.592z M40.899,22.696L34.726,72.6H18.798c0,0-6.139-48.591-6.248-49.905s1.359-1.446,1.359-1.446s23.988,0.009,25.719,0
		C41.359,21.239,40.899,22.696,40.899,22.696z"/>
	<path d="M25.459,36.223"/>
	<path d="M38.161,33.449"/>
	<path d="M29.116,30.958"/>
	<path d="M35.9,45.198"/>
	<g>
		<polygon fill="#FFFFFF" points="23.917,30.842 23.191,32.03 23.944,32.996 24.903,32.201 		"/>
		<g>
			<path fill="#6A499D" stroke="#6A499D" stroke-width="0.5" stroke-miterlimit="10" d="M23.852,30.545
				c0.01,0.772-0.615,1.5-1.369,1.49c-0.06-0.001-0.06,0.096,0,0.097c0.803,0.011,1.472-0.763,1.462-1.587
				C23.943,30.483,23.851,30.483,23.852,30.545L23.852,30.545z"/>
			<path fill="#6A499D" stroke="#6A499D" stroke-width="0.5" stroke-miterlimit="10" d="M22.535,32.132
				c0.853-0.074,1.299,0.694,1.272,1.506c-0.002,0.062,0.09,0.062,0.092,0c0.015-0.438-0.079-0.872-0.357-1.21
				c-0.25-0.304-0.634-0.425-1.007-0.392C22.476,32.04,22.476,32.137,22.535,32.132L22.535,32.132z"/>
			<path fill="#6A499D" stroke="#6A499D" stroke-width="0.5" stroke-miterlimit="10" d="M23.899,33.638
				c0.001-0.254,0.02-0.477,0.19-0.674c0.145-0.168,0.307-0.322,0.481-0.458c0.149-0.117,0.307-0.203,0.488-0.249
				c0.113-0.029,0.267-0.03,0.365-0.104c0.048-0.036,0.002-0.12-0.047-0.083c-0.12,0.09-0.333,0.086-0.474,0.131
				c-0.18,0.058-0.34,0.187-0.486,0.307c-0.164,0.135-0.359,0.303-0.473,0.488c-0.121,0.197-0.136,0.412-0.137,0.641
				C23.807,33.7,23.899,33.7,23.899,33.638L23.899,33.638z"/>
			<path fill="#6A499D" stroke="#6A499D" stroke-width="0.5" stroke-miterlimit="10" d="M25.4,32.063
				c-0.681-0.044-1.379-0.819-1.456-1.518c-0.007-0.061-0.099-0.062-0.092,0c0.082,0.754,0.811,1.566,1.548,1.615
				C25.459,32.164,25.459,32.067,25.4,32.063L25.4,32.063z"/>
		</g>
	</g>
	<path fill="#FFFFFF" d="M22.206,35.002"/>
	<g>
		<polygon fill="#FFFFFF" points="31.88,44.196 31.104,45.149 31.909,45.924 32.934,45.285 		"/>
		<g>
			<path fill="#6A499D" stroke="#6A499D" stroke-width="0.5" stroke-miterlimit="10" d="M31.81,43.957
				c0.011,0.619-0.658,1.203-1.465,1.195c-0.064-0.001-0.064,0.077,0,0.078c0.859,0.009,1.575-0.612,1.564-1.273
				C31.908,43.907,31.809,43.907,31.81,43.957L31.81,43.957z"/>
			<path fill="#6A499D" stroke="#6A499D" stroke-width="0.5" stroke-miterlimit="10" d="M30.402,45.23
				c0.912-0.059,1.39,0.556,1.36,1.208c-0.002,0.05,0.096,0.05,0.099,0c0.016-0.351-0.085-0.699-0.382-0.97
				c-0.267-0.244-0.678-0.341-1.077-0.315C30.339,45.157,30.339,45.234,30.402,45.23L30.402,45.23z"/>
			<path fill="#6A499D" stroke="#6A499D" stroke-width="0.5" stroke-miterlimit="10" d="M31.861,46.438
				c0.001-0.203,0.022-0.383,0.203-0.541c0.155-0.135,0.329-0.258,0.514-0.367c0.159-0.093,0.329-0.163,0.522-0.2
				c0.121-0.023,0.285-0.024,0.39-0.083c0.051-0.029,0.002-0.096-0.05-0.067c-0.128,0.072-0.357,0.069-0.506,0.105
				c-0.192,0.047-0.364,0.15-0.52,0.246c-0.176,0.108-0.384,0.243-0.506,0.392c-0.13,0.158-0.146,0.33-0.147,0.514
				C31.762,46.488,31.861,46.488,31.861,46.438L31.861,46.438z"/>
			<path fill="#6A499D" stroke="#6A499D" stroke-width="0.5" stroke-miterlimit="10" d="M33.466,45.175
				c-0.728-0.036-1.475-0.657-1.557-1.218c-0.007-0.049-0.106-0.05-0.099,0c0.088,0.605,0.868,1.256,1.656,1.295
				C33.53,45.256,33.529,45.178,33.466,45.175L33.466,45.175z"/>
		</g>
	</g>
	<g>
		<polygon fill="#FFFFFF" points="22.466,56.517 21.689,57.47 22.494,58.245 23.52,57.607 		"/>
		<g>
			<path fill="#6A499D" stroke="#6A499D" stroke-width="0.5" stroke-miterlimit="10" d="M22.396,56.279
				c0.011,0.619-0.658,1.203-1.465,1.195c-0.064-0.001-0.064,0.077,0,0.078c0.859,0.009,1.575-0.612,1.564-1.273
				C22.494,56.229,22.395,56.229,22.396,56.279L22.396,56.279z"/>
			<path fill="#6A499D" stroke="#6A499D" stroke-width="0.5" stroke-miterlimit="10" d="M20.988,57.552
				c0.912-0.059,1.39,0.556,1.36,1.208c-0.002,0.05,0.096,0.05,0.099,0c0.016-0.351-0.085-0.699-0.382-0.97
				c-0.267-0.244-0.678-0.341-1.077-0.315C20.925,57.478,20.924,57.556,20.988,57.552L20.988,57.552z"/>
			<path fill="#6A499D" stroke="#6A499D" stroke-width="0.5" stroke-miterlimit="10" d="M22.446,58.76
				c0.001-0.203,0.022-0.383,0.203-0.541c0.155-0.135,0.329-0.258,0.514-0.367c0.159-0.093,0.329-0.163,0.522-0.2
				c0.121-0.023,0.285-0.024,0.39-0.083c0.051-0.029,0.002-0.096-0.05-0.067c-0.128,0.072-0.357,0.069-0.506,0.105
				c-0.192,0.047-0.364,0.15-0.52,0.246c-0.176,0.108-0.384,0.243-0.506,0.392c-0.13,0.158-0.146,0.33-0.147,0.514
				C22.347,58.81,22.446,58.809,22.446,58.76L22.446,58.76z"/>
			<path fill="#6A499D" stroke="#6A499D" stroke-width="0.5" stroke-miterlimit="10" d="M24.051,57.496
				c-0.728-0.036-1.475-0.657-1.557-1.218c-0.007-0.049-0.106-0.05-0.099,0c0.088,0.605,0.868,1.256,1.656,1.295
				C24.115,57.577,24.114,57.5,24.051,57.496L24.051,57.496z"/>
		</g>
	</g>
</g>
<g id="Layer_1_1_">
	<polygon fill="#FFFFFF" points="1.631,12.438 36.834,12.438 34.425,30.21 29.154,78.932 29.931,90.438 8.533,90.438 8.529,76.137 	
		"/>
	<polygon fill="#F7B0BA" points="2.998,17.957 19.232,17.297 36.086,17.957 28.839,76.018 9.595,76.018 	"/>
	<path fill="#6A489D" d="M35.834,11.438H2.631c-0.5,0-1,0.398-1,1v7.602v0.199l6.898,55.898l0.004,14.301c0,0.5,0.398,1,1,1h19.398
		c0.5,0,1-0.398,1-1V76.04l6.898-55.898v-0.199v-0.102l0.004-7.403C36.834,11.938,36.436,11.438,35.834,11.438z M32.537,13.438
		h2.301l-0.004,3.199c-0.5-0.199-0.898-0.301-1.398-0.301h-0.898L32.537,13.438L32.537,13.438z M28.432,13.34h2.199v2.898h-2.199
		V13.34z M24.334,13.34h2.199v2.898h-2.199V13.34z M20.131,13.34h2.199v2.898h-2.199V13.34z M16.033,13.34l2.199-0.004v2.898
		l-2.199,0.004V13.34z M11.834,13.34h2.199v2.898h-2.199V13.34z M7.732,13.34h2.199v2.898H7.732V13.34z M3.533,13.337h2.199v2.898
		H5.033c-0.5,0-1,0.102-1.5,0.301V13.337z M27.931,89.54H10.533v-1.5h17.398V89.54z M15.534,86.137
		c0.398-1.699,1.898-2.898,3.699-2.898s3.301,1.199,3.801,2.898H15.534z M28.033,86.137h-3c-0.5-2.699-2.898-4.801-5.699-4.801
		s-5.301,2.102-5.699,4.801h-3v-9.199h17.398C28.033,76.938,28.033,86.137,28.033,86.137z M34.882,20.003l-6.816,55.101H10.479
		c0,0-6.778-53.651-6.898-55.102s1.5-1.597,1.5-1.597s26.486,0.01,28.398,0C35.39,18.395,34.882,20.003,34.882,20.003z"/>
	<path d="M17.834,34.939"/>
	<path d="M31.859,31.876"/>
	<path d="M21.872,29.126"/>
	<path d="M29.362,44.848"/>
	<g>
		<polygon fill="#FFFFFF" points="16.131,28.998 15.329,30.31 16.161,31.376 17.22,30.498 		"/>
		<g>
			<path fill="#6A499D" stroke="#6A499D" stroke-width="0.5" stroke-miterlimit="10" d="M16.059,28.67
				c0.011,0.853-0.679,1.657-1.512,1.645c-0.066-0.001-0.066,0.106,0,0.107c0.887,0.012,1.626-0.842,1.614-1.752
				C16.16,28.601,16.058,28.601,16.059,28.67L16.059,28.67z"/>
			<path fill="#6A499D" stroke="#6A499D" stroke-width="0.5" stroke-miterlimit="10" d="M14.606,30.422
				c0.942-0.081,1.435,0.766,1.404,1.663c-0.002,0.069,0.1,0.069,0.102,0c0.017-0.484-0.087-0.963-0.394-1.336
				c-0.276-0.336-0.7-0.469-1.112-0.433C14.541,30.321,14.54,30.427,14.606,30.422L14.606,30.422z"/>
			<path fill="#6A499D" stroke="#6A499D" stroke-width="0.5" stroke-miterlimit="10" d="M16.112,32.084
				c0.001-0.28,0.022-0.527,0.21-0.744c0.16-0.186,0.339-0.356,0.531-0.506c0.164-0.129,0.339-0.225,0.539-0.275
				c0.125-0.032,0.294-0.033,0.403-0.114c0.053-0.04,0.002-0.132-0.052-0.092c-0.132,0.099-0.368,0.095-0.523,0.145
				c-0.199,0.064-0.375,0.207-0.536,0.339c-0.181,0.149-0.396,0.335-0.522,0.539c-0.134,0.218-0.15,0.455-0.151,0.708
				C16.009,32.153,16.111,32.153,16.112,32.084L16.112,32.084z"/>
			<path fill="#6A499D" stroke="#6A499D" stroke-width="0.5" stroke-miterlimit="10" d="M17.768,30.346
				c-0.752-0.049-1.523-0.904-1.607-1.676c-0.007-0.068-0.109-0.068-0.102,0c0.091,0.833,0.896,1.73,1.709,1.783
				C17.834,30.457,17.834,30.35,17.768,30.346L17.768,30.346z"/>
		</g>
	</g>
	<path fill="#FFFFFF" d="M14.242,33.591"/>
	<g>
		<polygon fill="#FFFFFF" points="24.924,43.742 24.066,44.794 24.955,45.65 26.088,44.945 		"/>
		<g>
			<path fill="#6A499D" stroke="#6A499D" stroke-width="0.5" stroke-miterlimit="10" d="M24.846,43.479
				c0.012,0.684-0.727,1.329-1.617,1.32c-0.07-0.001-0.07,0.085,0,0.086c0.949,0.009,1.739-0.676,1.726-1.405
				C24.955,43.424,24.845,43.423,24.846,43.479L24.846,43.479z"/>
			<path fill="#6A499D" stroke="#6A499D" stroke-width="0.5" stroke-miterlimit="10" d="M23.292,44.884
				c1.007-0.065,1.534,0.614,1.502,1.334c-0.002,0.055,0.107,0.055,0.109,0c0.018-0.388-0.094-0.772-0.422-1.072
				c-0.295-0.269-0.749-0.376-1.189-0.348C23.222,44.803,23.222,44.889,23.292,44.884L23.292,44.884z"/>
			<path fill="#6A499D" stroke="#6A499D" stroke-width="0.5" stroke-miterlimit="10" d="M24.903,46.218
				c0.001-0.225,0.024-0.423,0.225-0.597c0.172-0.149,0.363-0.285,0.568-0.406c0.176-0.103,0.363-0.18,0.576-0.221
				c0.134-0.025,0.315-0.027,0.431-0.092c0.057-0.032,0.002-0.106-0.055-0.074c-0.142,0.079-0.394,0.076-0.559,0.116
				c-0.213,0.051-0.401,0.166-0.574,0.272c-0.194,0.12-0.424,0.268-0.559,0.433c-0.143,0.175-0.161,0.365-0.162,0.568
				C24.793,46.273,24.902,46.273,24.903,46.218L24.903,46.218z"/>
			<path fill="#6A499D" stroke="#6A499D" stroke-width="0.5" stroke-miterlimit="10" d="M26.674,44.823
				c-0.804-0.039-1.629-0.725-1.719-1.344c-0.008-0.054-0.117-0.055-0.109,0c0.097,0.668,0.958,1.387,1.828,1.43
				C26.745,44.912,26.744,44.826,26.674,44.823L26.674,44.823z"/>
		</g>
	</g>
	<g>
		<polygon fill="#FFFFFF" points="14.529,57.347 13.671,58.399 14.56,59.255 15.693,58.55 		"/>
		<g>
			<path fill="#6A499D" stroke="#6A499D" stroke-width="0.5" stroke-miterlimit="10" d="M14.451,57.083
				c0.012,0.684-0.727,1.329-1.617,1.32c-0.07-0.001-0.07,0.085,0,0.086c0.949,0.01,1.739-0.676,1.726-1.405
				C14.559,57.028,14.45,57.028,14.451,57.083L14.451,57.083z"/>
			<path fill="#6A499D" stroke="#6A499D" stroke-width="0.5" stroke-miterlimit="10" d="M12.897,58.489
				c1.007-0.065,1.534,0.614,1.502,1.334c-0.002,0.055,0.107,0.055,0.109,0c0.018-0.388-0.094-0.772-0.422-1.072
				c-0.295-0.269-0.749-0.376-1.189-0.348C12.827,58.408,12.827,58.493,12.897,58.489L12.897,58.489z"/>
			<path fill="#6A499D" stroke="#6A499D" stroke-width="0.5" stroke-miterlimit="10" d="M14.507,59.822
				c0.001-0.225,0.024-0.423,0.225-0.597c0.172-0.149,0.363-0.285,0.568-0.406c0.176-0.103,0.363-0.18,0.576-0.221
				c0.134-0.025,0.315-0.027,0.431-0.092c0.057-0.032,0.002-0.106-0.055-0.074c-0.142,0.079-0.394,0.076-0.559,0.116
				c-0.213,0.051-0.401,0.166-0.574,0.272c-0.194,0.12-0.424,0.268-0.559,0.433c-0.143,0.175-0.161,0.365-0.162,0.568
				C14.398,59.878,14.507,59.878,14.507,59.822L14.507,59.822z"/>
			<path fill="#6A499D" stroke="#6A499D" stroke-width="0.5" stroke-miterlimit="10" d="M16.279,58.428
				c-0.804-0.039-1.629-0.725-1.719-1.344c-0.008-0.054-0.117-0.055-0.109,0c0.097,0.668,0.958,1.387,1.828,1.43
				C16.35,58.517,16.349,58.431,16.279,58.428L16.279,58.428z"/>
		</g>
	</g>
</g>
</svg>
