<?xml version="1.0" encoding="utf-8"?>
<!-- Generator: Adobe Illustrator 17.0.0, SVG Export Plug-In . SVG Version: 6.00 Build 0)  -->
<!DOCTYPE svg PUBLIC "-//W3C//DTD SVG 1.1//EN" "http://www.w3.org/Graphics/SVG/1.1/DTD/svg11.dtd">
<svg version="1.1" id="Layer_1" xmlns="http://www.w3.org/2000/svg" xmlns:xlink="http://www.w3.org/1999/xlink" x="0px" y="0px"
	 width="100.323px" height="94.2px" viewBox="0 1.7 100.323 94.2" enable-background="new 0 1.7 100.323 94.2" xml:space="preserve"
	>
<path fill="#F7B0BB" d="M3.623,24.3c0,0-2.2,33,0,36.6c2.2,3.6,12,26.4,26.6,29.4c14.6,3.2,38.8,6,44,0c5.2-6,15.4-13.8,18.4-21.2
	c3.2-7.4,7.4-24.4,6.6-28.4c-0.8-4-2.8-13.8-3.6-11.8s-12.2,4-15,8.4s-7.4,8.4-20,1s-24.4-6.6-28.8-6.2
	C27.623,32.3,8.823,29.5,3.623,24.3z"/>
<path fill="#704EA0" d="M98.223,28.3l-0.2,0.2c0.2-0.4,0.4-0.8,0.4-1.4c0.8-11-20.8-16.2-34.2-17.6l-12.2-7.8h-0.6
	c-4.8,0-8.6,0.8-12.4,1.6c-2.6,0.6-5.4,1.2-8.6,1.4l-1.2,0.2l-0.4,0.8c-0.2,0.2-2.8,5.6-9.2,6.6c-1,0.2-2-0.2-3.2-0.4
	c-1-0.2-2.2-0.6-3.6-0.6c-3.2,0-5.8,1.8-8.6,5.6c-0.8,1.2-1.4,2.2-1.6,3.2l0,0c-3,6.2-2.4,18-1.4,29.8l0.2,1.4
	c0.6,7.2,0.6,7.4,4.2,15l0.2,0.2c3.8,8.6,8.2,13.2,14.2,19c7.2,7,19,9,23.8,9.6c4.2,0.6,8,0.8,11.6,0.8c7,0,12.6-1,16.8-3
	c7.8-3.8,12.2-8.8,18-15.8c5.4-6.6,6.4-10,8.2-17l0.4-1.6C100.623,49.9,101.223,36.7,98.223,28.3L98.223,28.3z M94.423,26.7
	c-0.4,0.6-3.4,1.2-4.8,1.6c-3,0.6-5.6,1.2-7.2,3c-2.6,3-4,5.4-5,7c-1.4,2.2-1.4,2.2-2,2.2s-1.4-0.2-2.4-0.4c0.6-1.2,1.6-2.6,2.6-4.2
	c1.4-2.2,3.2-4.8,4.2-7.2c0.4-0.2,1.4-0.4,2-0.4c2.2-0.4,4.4-0.8,5.4-2.4c0.4-0.8,0.6-1.8,0.2-2.6c-1.2-3.8-8.2-5.8-16-7.4
	c-1.2-0.2-2-0.4-2.6-0.6c-0.8-0.2-2.4-1-4-1.8C80.023,15.1,94.823,20.5,94.423,26.7L94.423,26.7z M21.223,18.7
	c1.6-0.2,3-0.2,4.4-0.2c1.2,0,2.8,0,4.4,0h0.8l5.6-5.4c6.4-0.4,9.8-0.6,15.6-0.6h0.2c1.8,0,6.6,2.4,9.8,3.8c2.6,1.2,4.8,2.2,6.2,2.6
	c0.6,0.2,1.6,0.4,2.8,0.6c8.4,1.8,11.6,3.2,12.6,4.2c-0.6,0.2-1.6,0.4-2.2,0.4c-2.2,0.4-4,0.8-4.8,2.4c-1,2.2-2.6,4.8-4,7
	c-1,1.6-2,3-2.6,4.2c-1.2-0.4-3.2-1.4-5.8-2.4c-13.8-5.8-28.8-11.8-34.8-12c-3.6-0.2-7-0.4-11-1.2l-0.8-0.2
	c-0.8-0.2-2.4-0.4-3.2-0.8C15.023,20.3,18.223,19.1,21.223,18.7L21.223,18.7z M31.823,8.5c3-0.4,5.6-0.8,8-1.4c3.6-0.8,7-1.4,11-1.4
	l7.4,4.6c-2.6-1.2-4.6-1.8-6.2-1.8c-6.2,0-9.6,0.2-16.6,0.6h-0.8l-5.6,5.4c-1.2,0-2.2,0-3.2,0c-0.2,0-0.2,0-0.4,0
	C28.823,12.7,30.823,9.9,31.823,8.5L31.823,8.5z M7.423,19.5c2.6-3.6,4.2-4,5.4-4c0.8,0,1.6,0.2,2.6,0.4h0.2c-2.6,1-5.4,2.4-6,4.8
	c-0.2,0.8,0,1.8,0.4,2.4c1.2,1.8,3.8,2.4,6.2,2.8l0.8,0.2c4.6,1,8.2,1.2,11.6,1.4c2.2,0,6.2,1.2,10.6,2.8c-1,0-2.2-0.2-3.4-0.2
	c-8.8-0.8-27.2-2.2-29.4-7.2C6.423,22.5,6.023,21.5,7.423,19.5L7.423,19.5z M94.423,57.7l-0.4,1.6c-1.8,7-2.4,9.6-7.4,15.6
	c-5.4,6.6-9.6,11.2-16.6,14.8c-5.4,2.6-14.6,3.4-26.2,2c-4.4-0.6-15.2-2.4-21.6-8.6c-5.8-5.6-9.8-9.8-13.2-17.8l-0.2-0.2
	c-3.2-7.2-3.2-7.2-3.8-13.8l0.2-1.6c-0.4-5.6-1.4-15.8-0.4-22.8c5,4.4,17.4,6,30.8,7c3.6,0.4,7,0.6,8.2,1c10.6,3,17.6,5.4,22.2,7
	c4.8,1.6,7.4,2.4,9.2,2.4c2.8,0,4-1.8,5.4-4.2c1-1.6,2.2-3.8,4.6-6.6c0.6-0.6,3.2-1.2,5-1.6c1.6-0.4,3.2-0.6,4.6-1.2
	C97.023,38.7,96.423,50.3,94.423,57.7L94.423,57.7z"/>
<path fill="#F7B0BB" d="M18.223,17.9"/>
<g>
	<polygon fill="#FFFFFF" points="49.023,44.3 50.223,46.5 48.823,48.3 47.223,46.7 	"/>
	<g>
		<path fill="#6A499C" stroke="#6A499C" stroke-width="0.5" stroke-miterlimit="10" d="M49.023,43.9c0,1.4,1.2,2.6,2.4,2.6
			c0.2,0,0.2,0.2,0,0.2C50.023,46.7,48.823,45.3,49.023,43.9C48.823,43.7,49.023,43.7,49.023,43.9L49.023,43.9z"/>
		<path fill="#6A499C" stroke="#6A499C" stroke-width="0.5" stroke-miterlimit="10" d="M51.423,46.7c-1.6-0.2-2.4,1.2-2.2,2.6
			c0,0.2-0.2,0.2-0.2,0c0-0.8,0.2-1.6,0.6-2.2C50.023,46.7,50.823,46.5,51.423,46.7C51.623,46.5,51.623,46.7,51.423,46.7
			L51.423,46.7z"/>
		<path fill="#6A499C" stroke="#6A499C" stroke-width="0.5" stroke-miterlimit="10" d="M49.023,49.3c0-0.4,0-0.8-0.4-1.2
			c-0.2-0.4-0.6-0.6-0.8-0.8c-0.2-0.2-0.6-0.4-0.8-0.4c-0.2,0-0.4,0-0.6-0.2v-0.2c0.2,0.2,0.6,0.2,0.8,0.2c0.4,0.2,0.6,0.4,0.8,0.6
			c0.2,0.2,0.6,0.6,0.8,0.8C49.223,48.5,49.223,48.9,49.023,49.3C49.223,49.5,49.023,49.5,49.023,49.3L49.023,49.3z"/>
		<path fill="#6A499C" stroke="#6A499C" stroke-width="0.5" stroke-miterlimit="10" d="M46.223,46.5c1.2,0,2.4-1.4,2.6-2.8
			c0-0.2,0.2-0.2,0.2,0C49.023,45.1,47.623,46.7,46.223,46.5C46.223,46.7,46.223,46.5,46.223,46.5L46.223,46.5z"/>
	</g>
</g>
<g>
	<polygon fill="#FFFFFF" points="33.223,62.1 34.623,63.9 33.023,65.3 31.223,64.1 	"/>
	<g>
		<path fill="#6A499C" stroke="#6A499C" stroke-width="0.5" stroke-miterlimit="10" d="M33.223,61.7c0,1.2,1.2,2.2,2.6,2.2
			c0.2,0,0.2,0.2,0,0.2C34.423,64.1,33.023,62.9,33.223,61.7C33.023,61.7,33.223,61.7,33.223,61.7L33.223,61.7z"/>
		<path fill="#6A499C" stroke="#6A499C" stroke-width="0.5" stroke-miterlimit="10" d="M35.823,64.1c-1.6-0.2-2.4,1-2.4,2.2h-0.2
			c0-0.6,0.2-1.2,0.6-1.8C34.423,64.1,35.023,63.9,35.823,64.1C35.823,63.9,35.823,64.1,35.823,64.1L35.823,64.1z"/>
		<path fill="#6A499C" stroke="#6A499C" stroke-width="0.5" stroke-miterlimit="10" d="M33.223,66.3c0-0.4,0-0.6-0.4-1
			c-0.2-0.2-0.6-0.4-1-0.6c-0.2-0.2-0.6-0.2-1-0.4c-0.2,0-0.6,0-0.8-0.2v-0.2c0.2,0.2,0.6,0.2,1,0.2s0.6,0.2,1,0.4
			c0.4,0.2,0.6,0.4,1,0.6C33.423,65.5,33.423,65.9,33.223,66.3C33.423,66.3,33.223,66.3,33.223,66.3L33.223,66.3z"/>
		<path fill="#6A499C" stroke="#6A499C" stroke-width="0.5" stroke-miterlimit="10" d="M30.223,63.9c1.4,0,2.6-1.2,2.8-2.2h0.2
			C33.023,62.9,31.623,64.1,30.223,63.9C30.223,64.1,30.223,63.9,30.223,63.9L30.223,63.9z"/>
	</g>
</g>
<g>
	<polygon fill="#FFFFFF" points="43.223,80.1 44.623,81.9 43.223,83.3 41.423,82.1 	"/>
	<g>
		<path fill="#6A499C" stroke="#6A499C" stroke-width="0.5" stroke-miterlimit="10" d="M43.423,79.7c0,1.2,1.2,2.2,2.6,2.2
			c0.2,0,0.2,0.2,0,0.2C44.423,82.1,43.223,80.9,43.423,79.7C43.223,79.7,43.423,79.7,43.423,79.7L43.423,79.7z"/>
		<path fill="#6A499C" stroke="#6A499C" stroke-width="0.5" stroke-miterlimit="10" d="M45.823,81.9c-1.6-0.2-2.4,1-2.4,2.2h-0.2
			c0-0.6,0.2-1.2,0.6-1.8C44.423,81.9,45.223,81.9,45.823,81.9C46.023,81.9,46.023,81.9,45.823,81.9L45.823,81.9z"/>
		<path fill="#6A499C" stroke="#6A499C" stroke-width="0.5" stroke-miterlimit="10" d="M43.223,84.1c0-0.4,0-0.6-0.4-1
			c-0.2-0.2-0.6-0.4-1-0.6c-0.2-0.2-0.6-0.2-1-0.4c-0.2,0-0.6,0-0.8-0.2v-0.2c0.2,0.2,0.6,0.2,1,0.2s0.6,0.2,1,0.4s0.6,0.4,1,0.6
			C43.423,83.5,43.423,83.9,43.223,84.1C43.423,84.3,43.223,84.3,43.223,84.1L43.223,84.1z"/>
		<path fill="#6A499C" stroke="#6A499C" stroke-width="0.5" stroke-miterlimit="10" d="M40.423,81.9c1.4,0,2.6-1.2,2.8-2.2h0.2
			C43.223,80.7,41.823,81.9,40.423,81.9C40.223,82.1,40.223,81.9,40.423,81.9L40.423,81.9z"/>
	</g>
</g>
</svg>
