<?xml version="1.0" encoding="utf-8"?>
<!-- Generator: Adobe Illustrator 17.0.0, SVG Export Plug-In . SVG Version: 6.00 Build 0)  -->
<!DOCTYPE svg PUBLIC "-//W3C//DTD SVG 1.1//EN" "http://www.w3.org/Graphics/SVG/1.1/DTD/svg11.dtd">
<svg version="1.1" id="Layer_1" xmlns="http://www.w3.org/2000/svg" xmlns:xlink="http://www.w3.org/1999/xlink" x="0px" y="0px"
	 width="95.5px" height="80px" viewBox="4.5 12.438 95.5 80" enable-background="new 4.5 12.438 95.5 80" xml:space="preserve">
<polygon fill="#FFFFFF" points="34.724,13.438 69.927,13.438 67.518,31.21 62.247,79.932 63.024,91.438 41.626,91.438 
	41.622,77.137 "/>
<polygon fill="#F7B0BA" points="36.09,18.957 52.325,18.297 69.179,18.957 61.932,77.018 42.688,77.018 "/>
<path fill="#6A489D" d="M68.927,12.438H35.724c-0.5,0-1,0.398-1,1v7.602v0.199l6.898,55.898l0.004,14.301c0,0.5,0.398,1,1,1h19.398
	c0.5,0,1-0.398,1-1V77.04l6.898-55.898v-0.199v-0.102l0.004-7.403C69.927,12.938,69.528,12.438,68.927,12.438z M65.63,14.438h2.301
	l-0.004,3.199c-0.5-0.199-0.898-0.301-1.398-0.301H65.63V14.438z M61.524,14.34h2.199v2.898h-2.199V14.34z M57.427,14.34h2.199
	v2.898h-2.199V14.34z M53.224,14.34h2.199v2.898h-2.199V14.34z M49.126,14.34l2.199-0.004v2.898l-2.199,0.004V14.34z M44.927,14.34
	h2.199v2.898h-2.199V14.34z M40.825,14.34h2.199v2.898h-2.199V14.34z M36.626,14.337h2.199v2.898h-0.699c-0.5,0-1,0.102-1.5,0.301
	V14.337z M61.024,90.54H43.626v-1.5h17.398C61.024,89.04,61.024,90.54,61.024,90.54z M48.626,87.137
	c0.398-1.699,1.898-2.898,3.699-2.898s3.301,1.199,3.801,2.898H48.626z M61.126,87.137h-3c-0.5-2.699-2.898-4.801-5.699-4.801
	c-2.801,0-5.301,2.102-5.699,4.801h-3v-9.199h17.398V87.137z M67.974,21.003l-6.816,55.101H43.572c0,0-6.778-53.651-6.898-55.102
	s1.5-1.597,1.5-1.597s26.486,0.01,28.398,0C68.483,19.395,67.974,21.003,67.974,21.003z"/>
<path d="M50.927,35.939"/>
<path d="M64.951,32.876"/>
<path d="M54.964,30.126"/>
<path d="M62.455,45.848"/>
<g>
	<polygon fill="#FFFFFF" points="49.224,29.998 48.422,31.31 49.254,32.376 50.312,31.498 	"/>
	<g>
		<path fill="#6A499D" stroke="#6A499D" stroke-width="0.5" stroke-miterlimit="10" d="M49.152,29.67
			c0.011,0.853-0.68,1.657-1.512,1.645c-0.066-0.001-0.066,0.106,0,0.107c0.887,0.012,1.626-0.842,1.614-1.752
			C49.253,29.601,49.151,29.601,49.152,29.67L49.152,29.67z"/>
		<path fill="#6A499D" stroke="#6A499D" stroke-width="0.5" stroke-miterlimit="10" d="M47.698,31.422
			c0.942-0.081,1.435,0.766,1.404,1.663c-0.002,0.069,0.1,0.069,0.102,0c0.017-0.484-0.088-0.963-0.394-1.336
			c-0.276-0.336-0.7-0.469-1.112-0.433C47.633,31.321,47.633,31.427,47.698,31.422L47.698,31.422z"/>
		<path fill="#6A499D" stroke="#6A499D" stroke-width="0.5" stroke-miterlimit="10" d="M49.204,33.084
			c0.001-0.28,0.022-0.527,0.21-0.744c0.16-0.186,0.339-0.356,0.531-0.506c0.164-0.129,0.339-0.225,0.539-0.275
			c0.125-0.032,0.294-0.033,0.403-0.114c0.053-0.04,0.002-0.132-0.052-0.092c-0.132,0.099-0.368,0.095-0.523,0.145
			c-0.199,0.064-0.375,0.207-0.536,0.339c-0.181,0.149-0.396,0.335-0.522,0.539c-0.134,0.218-0.15,0.455-0.151,0.708
			C49.102,33.153,49.204,33.153,49.204,33.084L49.204,33.084z"/>
		<path fill="#6A499D" stroke="#6A499D" stroke-width="0.5" stroke-miterlimit="10" d="M50.861,31.346
			c-0.752-0.049-1.523-0.904-1.607-1.676c-0.007-0.068-0.109-0.068-0.102,0c0.091,0.833,0.896,1.73,1.709,1.783
			C50.927,31.457,50.926,31.35,50.861,31.346L50.861,31.346z"/>
	</g>
</g>
<path fill="#FFFFFF" d="M47.335,34.591"/>
<g>
	<polygon fill="#FFFFFF" points="58.016,44.742 57.159,45.794 58.048,46.65 59.18,45.945 	"/>
	<g>
		<path fill="#6A499D" stroke="#6A499D" stroke-width="0.5" stroke-miterlimit="10" d="M57.939,44.479
			c0.012,0.684-0.727,1.329-1.617,1.32c-0.07-0.001-0.07,0.085,0,0.086c0.949,0.009,1.739-0.676,1.726-1.405
			C58.047,44.424,57.938,44.423,57.939,44.479L57.939,44.479z"/>
		<path fill="#6A499D" stroke="#6A499D" stroke-width="0.5" stroke-miterlimit="10" d="M56.384,45.884
			c1.007-0.065,1.534,0.614,1.502,1.334c-0.002,0.055,0.107,0.055,0.109,0c0.018-0.388-0.094-0.772-0.422-1.072
			c-0.295-0.269-0.749-0.376-1.189-0.348C56.315,45.803,56.314,45.889,56.384,45.884L56.384,45.884z"/>
		<path fill="#6A499D" stroke="#6A499D" stroke-width="0.5" stroke-miterlimit="10" d="M57.995,47.218
			c0.001-0.225,0.024-0.423,0.225-0.597c0.172-0.149,0.363-0.285,0.568-0.406c0.176-0.103,0.363-0.18,0.576-0.221
			c0.134-0.025,0.315-0.027,0.431-0.092c0.057-0.032,0.002-0.106-0.055-0.074c-0.142,0.079-0.394,0.076-0.559,0.116
			c-0.213,0.051-0.401,0.166-0.574,0.272c-0.194,0.12-0.424,0.268-0.559,0.433c-0.143,0.175-0.161,0.365-0.162,0.568
			C57.886,47.273,57.995,47.273,57.995,47.218L57.995,47.218z"/>
		<path fill="#6A499D" stroke="#6A499D" stroke-width="0.5" stroke-miterlimit="10" d="M59.767,45.823
			c-0.804-0.039-1.629-0.725-1.719-1.344c-0.008-0.054-0.117-0.055-0.109,0c0.097,0.668,0.958,1.387,1.828,1.43
			C59.837,45.912,59.837,45.826,59.767,45.823L59.767,45.823z"/>
	</g>
</g>
<g>
	<polygon fill="#FFFFFF" points="47.621,58.347 46.764,59.399 47.653,60.255 48.785,59.55 	"/>
	<g>
		<path fill="#6A499D" stroke="#6A499D" stroke-width="0.5" stroke-miterlimit="10" d="M47.544,58.083
			c0.012,0.684-0.727,1.329-1.617,1.32c-0.07-0.001-0.07,0.085,0,0.086c0.949,0.01,1.739-0.676,1.726-1.405
			C47.652,58.028,47.543,58.028,47.544,58.083L47.544,58.083z"/>
		<path fill="#6A499D" stroke="#6A499D" stroke-width="0.5" stroke-miterlimit="10" d="M45.989,59.489
			c1.007-0.065,1.534,0.614,1.502,1.334c-0.002,0.055,0.107,0.055,0.109,0c0.018-0.388-0.094-0.772-0.422-1.072
			c-0.295-0.269-0.749-0.376-1.189-0.348C45.92,59.408,45.919,59.493,45.989,59.489L45.989,59.489z"/>
		<path fill="#6A499D" stroke="#6A499D" stroke-width="0.5" stroke-miterlimit="10" d="M47.6,60.822
			c0.001-0.225,0.024-0.423,0.225-0.597c0.172-0.149,0.363-0.285,0.568-0.406c0.176-0.103,0.363-0.18,0.576-0.221
			c0.134-0.025,0.315-0.027,0.431-0.092c0.057-0.032,0.002-0.106-0.055-0.074c-0.142,0.079-0.394,0.076-0.559,0.116
			c-0.213,0.051-0.401,0.166-0.574,0.272c-0.194,0.12-0.424,0.268-0.559,0.433c-0.143,0.175-0.161,0.365-0.162,0.568
			C47.491,60.878,47.6,60.878,47.6,60.822L47.6,60.822z"/>
		<path fill="#6A499D" stroke="#6A499D" stroke-width="0.5" stroke-miterlimit="10" d="M49.372,59.428
			c-0.804-0.039-1.629-0.725-1.719-1.344c-0.008-0.054-0.117-0.055-0.109,0c0.097,0.668,0.958,1.387,1.828,1.43
			C49.442,59.517,49.442,59.431,49.372,59.428L49.372,59.428z"/>
	</g>
</g>
</svg>
