<?xml version="1.0" encoding="utf-8"?>
<!-- Generator: Adobe Illustrator 17.0.0, SVG Export Plug-In . SVG Version: 6.00 Build 0)  -->
<!DOCTYPE svg PUBLIC "-//W3C//DTD SVG 1.1//EN" "http://www.w3.org/Graphics/SVG/1.1/DTD/svg11.dtd">
<svg version="1.1" id="Layer_1" xmlns="http://www.w3.org/2000/svg" xmlns:xlink="http://www.w3.org/1999/xlink" x="0px" y="0px"
	 width="73.75px" height="86.132px" viewBox="13 6.75 73.75 86.132" enable-background="new 13 6.75 73.75 86.132"
	 xml:space="preserve">
<g>
	<g>
		<defs>
			<rect id="SVGID_1_" width="100" height="100"/>
		</defs>
		<clipPath id="SVGID_2_">
			<use xlink:href="#SVGID_1_"  overflow="visible"/>
		</clipPath>
		<path clip-path="url(#SVGID_2_)" fill="#F7B0BA" d="M15.983,20.076c0,0,15.214-13.597,32.208-9.349
			c3.655-1.581,14.028-4.413,30.034,3.178c7.861,6.675,7.508,7.274,7.508,11.384c-1.117,1.491-12.35-8.143-19.858-2.805
			c0,0,4.544,9.089,4.05,12.745c-2.964-1.68-10.428-6.224-16.279-5.632c-5.851,0.593-17.706,3.854-26.993,10.67
			c0,0,5.236-16.202,9.978-18.771S15.983,20.076,15.983,20.076"/>
	</g>
	<g>
		<defs>
			<rect id="SVGID_3_" width="100" height="100"/>
		</defs>
		<clipPath id="SVGID_4_">
			<use xlink:href="#SVGID_3_"  overflow="visible"/>
		</clipPath>
		<path clip-path="url(#SVGID_4_)" fill="#6A4A9E" d="M65.211,21.367c-0.895,0.18-0.945,1.246-0.485,1.836
			c2.407,3.071,3.782,6.535,4.196,10.281c-4.465-4.188-10.762-5.699-16.946-5.105c-1.613,0.156-3.187,0.453-4.73,0.859
			c-0.531-0.254-1.242-0.113-1.484,0.426c-6.297,1.953-12.078,5.617-17.805,8.89c2.074-6.277,5.449-11.895,10.082-16.711
			c0.66-0.687,0.184-1.863-0.777-1.875c-6.575-0.082-13.145-0.164-19.72-0.246c8.375-6.226,18.591-9.281,29-8.781
			c-0.125,0.84,0.711,1.766,1.578,1.148c0.485-0.343,0.977-0.636,1.477-0.91l0.117,0.012c0.509,0.059,0.829-0.191,0.966-0.543
			c5.503-2.414,11.858-1.086,17.573,0.578c6.148,1.793,15.938,4.781,16.242,12.285C79.249,19.023,71.715,20.062,65.211,21.367
			L65.211,21.367z M52.32,79.449c-0.125,2.653-0.273,5.305-0.445,7.953c-0.234,3.641-2.09,3.278-4.837,3.028
			c-2.726-19.668,1.938-39.388,0.891-59.106c0.461-0.117,0.926-0.23,1.391-0.332c1.117-0.234,2.262-0.39,3.422-0.476
			c-1.519,4.172-0.215,9.836-0.094,14.172c0.164,5.793,0.219,11.589,0.164,17.383C52.762,67.868,52.594,73.665,52.32,79.449
			L52.32,79.449z M72.078,10.109c-7.281-2.348-15.863-4.754-22.984-1.172c-12.855-1.336-25.582,2.684-35.43,11.066
			c-0.754,0.641-0.117,1.863,0.777,1.875c6.789,0.086,13.578,0.172,20.367,0.258c-4.617,5.336-7.91,11.539-9.742,18.41
			c-0.25,0.941,0.777,1.695,1.613,1.238c6.211-3.386,12.316-7.578,19.094-9.816c0.942,19.961-3.699,39.863-0.75,59.781
			c0.075,0.488,0.618,0.781,1.059,0.805c2.961,0.172,6.855,1.39,7.762-2.262c0.714-2.879,0.453-6.418,0.605-9.391
			c0.172-3.375,0.305-6.753,0.399-10.132c0.191-6.758,0.234-13.521,0.128-20.282c-0.054-3.378-0.144-6.757-0.273-10.137
			c-0.113-2.972-0.875-6.547,0.199-9.371c0.074-0.195,0.086-0.367,0.059-0.527c5.476,0.09,10.914,2.031,14.246,6.597
			c0.621,0.852,2.016,0.602,2.047-0.554c0.129-4.895-1.199-9.348-3.867-13.316c6.109-1.145,12.89-1.754,17.229,3.601
			c0.504,0.621,1.691,0.286,1.836-0.484c1.707-9.145-7.016-13.816-14.375-16.188L72.078,10.109z"/>
	</g>
	<g>
		<defs>
			<rect id="SVGID_5_" width="100" height="100"/>
		</defs>
		<clipPath id="SVGID_6_">
			<use xlink:href="#SVGID_5_"  overflow="visible"/>
		</clipPath>
		<polygon clip-path="url(#SVGID_6_)" fill="#FFFFFF" points="59.783,12.347 60.345,13.266 59.762,14.014 59.021,13.398 		"/>
	</g>
	<g>
		<defs>
			<rect id="SVGID_7_" width="100" height="100"/>
		</defs>
		<clipPath id="SVGID_8_">
			<use xlink:href="#SVGID_7_"  overflow="visible"/>
		</clipPath>
		<path clip-path="url(#SVGID_8_)" fill="#6A499D" d="M59.834,12.117c-0.007,0.598,0.477,1.161,1.06,1.153
			c0.045-0.001,0.045,0.074,0,0.075c-0.622,0.008-1.139-0.59-1.131-1.228C59.764,12.069,59.835,12.069,59.834,12.117"/>
	</g>
	<g>
		<defs>
			<rect id="SVGID_9_" width="100" height="100"/>
		</defs>
		<clipPath id="SVGID_10_">
			<use xlink:href="#SVGID_9_"  overflow="visible"/>
		</clipPath>
		<path clip-path="url(#SVGID_10_)" fill="none" stroke="#6A499D" stroke-width="0.5" stroke-miterlimit="10" d="M59.834,12.117
			c-0.007,0.598,0.477,1.161,1.06,1.153c0.045-0.001,0.045,0.074,0,0.075c-0.622,0.008-1.139-0.59-1.131-1.228
			C59.764,12.069,59.835,12.069,59.834,12.117z"/>
	</g>
	<g>
		<defs>
			<rect id="SVGID_11_" width="100" height="100"/>
		</defs>
		<clipPath id="SVGID_12_">
			<use xlink:href="#SVGID_11_"  overflow="visible"/>
		</clipPath>
		<path clip-path="url(#SVGID_12_)" fill="#6A499D" d="M60.853,13.344c-0.659-0.057-1.005,0.537-0.983,1.165
			c0.001,0.048-0.071,0.048-0.072,0c-0.011-0.339,0.061-0.675,0.276-0.936c0.193-0.235,0.491-0.329,0.779-0.304
			C60.898,13.273,60.898,13.348,60.853,13.344"/>
	</g>
	<g>
		<defs>
			<rect id="SVGID_13_" width="100" height="100"/>
		</defs>
		<clipPath id="SVGID_14_">
			<use xlink:href="#SVGID_13_"  overflow="visible"/>
		</clipPath>
		<path clip-path="url(#SVGID_14_)" fill="none" stroke="#6A499D" stroke-width="0.5" stroke-miterlimit="10" d="M60.853,13.344
			c-0.659-0.057-1.005,0.537-0.983,1.165c0.001,0.048-0.071,0.048-0.072,0c-0.011-0.339,0.061-0.675,0.276-0.936
			c0.193-0.235,0.491-0.329,0.779-0.304C60.898,13.273,60.898,13.348,60.853,13.344z"/>
	</g>
	<g>
		<defs>
			<rect id="SVGID_15_" width="100" height="100"/>
		</defs>
		<clipPath id="SVGID_16_">
			<use xlink:href="#SVGID_15_"  overflow="visible"/>
		</clipPath>
		<path clip-path="url(#SVGID_16_)" fill="#6A499D" d="M59.798,14.509c-0.001-0.196-0.016-0.369-0.147-0.521
			c-0.113-0.13-0.238-0.249-0.373-0.354c-0.115-0.091-0.237-0.158-0.377-0.193c-0.087-0.022-0.207-0.023-0.282-0.08
			c-0.037-0.028-0.002-0.093,0.036-0.064c0.093,0.069,0.258,0.066,0.367,0.101c0.138,0.045,0.262,0.145,0.376,0.237
			c0.127,0.105,0.277,0.235,0.365,0.378c0.094,0.153,0.105,0.319,0.106,0.496C59.869,14.557,59.798,14.557,59.798,14.509"/>
	</g>
	<g>
		<defs>
			<rect id="SVGID_17_" width="100" height="100"/>
		</defs>
		<clipPath id="SVGID_18_">
			<use xlink:href="#SVGID_17_"  overflow="visible"/>
		</clipPath>
		<path clip-path="url(#SVGID_18_)" fill="none" stroke="#6A499D" stroke-width="0.5" stroke-miterlimit="10" d="M59.798,14.509
			c-0.001-0.196-0.016-0.369-0.147-0.521c-0.113-0.13-0.238-0.249-0.373-0.354c-0.115-0.091-0.237-0.158-0.377-0.193
			c-0.087-0.022-0.207-0.023-0.282-0.08c-0.037-0.028-0.002-0.093,0.036-0.064c0.093,0.069,0.258,0.066,0.367,0.101
			c0.138,0.045,0.262,0.145,0.376,0.237c0.127,0.105,0.277,0.235,0.365,0.378c0.094,0.153,0.105,0.319,0.106,0.496
			C59.869,14.557,59.798,14.557,59.798,14.509z"/>
	</g>
	<g>
		<defs>
			<rect id="SVGID_19_" width="100" height="100"/>
		</defs>
		<clipPath id="SVGID_20_">
			<use xlink:href="#SVGID_19_"  overflow="visible"/>
		</clipPath>
		<path clip-path="url(#SVGID_20_)" fill="#6A499D" d="M58.637,13.291c0.527-0.034,1.067-0.634,1.126-1.174
			c0.005-0.048,0.077-0.048,0.071,0c-0.063,0.583-0.627,1.212-1.197,1.249C58.591,13.369,58.591,13.294,58.637,13.291"/>
	</g>
	<g>
		<defs>
			<rect id="SVGID_21_" width="100" height="100"/>
		</defs>
		<clipPath id="SVGID_22_">
			<use xlink:href="#SVGID_21_"  overflow="visible"/>
		</clipPath>
		<path clip-path="url(#SVGID_22_)" fill="none" stroke="#6A499D" stroke-width="0.5" stroke-miterlimit="10" d="M58.637,13.291
			c0.527-0.034,1.067-0.634,1.126-1.174c0.005-0.048,0.077-0.048,0.071,0c-0.063,0.583-0.627,1.212-1.197,1.249
			C58.591,13.369,58.591,13.294,58.637,13.291z"/>
	</g>
	<g>
		<defs>
			<rect id="SVGID_23_" width="100" height="100"/>
		</defs>
		<clipPath id="SVGID_24_">
			<use xlink:href="#SVGID_23_"  overflow="visible"/>
		</clipPath>
		<polygon clip-path="url(#SVGID_24_)" fill="#FFFFFF" points="53.555,18.816 54.156,19.553 53.533,20.153 52.74,19.659 		"/>
	</g>
	<g>
		<defs>
			<rect id="SVGID_25_" width="100" height="100"/>
		</defs>
		<clipPath id="SVGID_26_">
			<use xlink:href="#SVGID_25_"  overflow="visible"/>
		</clipPath>
		<path clip-path="url(#SVGID_26_)" fill="#6A499D" d="M53.609,18.632c-0.009,0.479,0.509,0.931,1.133,0.924
			c0.049,0,0.049,0.06,0,0.06c-0.665,0.007-1.219-0.473-1.21-0.984C53.533,18.593,53.609,18.593,53.609,18.632"/>
	</g>
	<g>
		<defs>
			<rect id="SVGID_27_" width="100" height="100"/>
		</defs>
		<clipPath id="SVGID_28_">
			<use xlink:href="#SVGID_27_"  overflow="visible"/>
		</clipPath>
		<path clip-path="url(#SVGID_28_)" fill="none" stroke="#6A499D" stroke-width="0.5" stroke-miterlimit="10" d="M53.609,18.632
			c-0.009,0.479,0.509,0.931,1.133,0.924c0.049,0,0.049,0.06,0,0.06c-0.665,0.007-1.219-0.473-1.21-0.984
			C53.533,18.593,53.609,18.593,53.609,18.632z"/>
	</g>
	<g>
		<defs>
			<rect id="SVGID_29_" width="100" height="100"/>
		</defs>
		<clipPath id="SVGID_30_">
			<use xlink:href="#SVGID_29_"  overflow="visible"/>
		</clipPath>
		<path clip-path="url(#SVGID_30_)" fill="#6A499D" d="M54.698,19.617c-0.706-0.046-1.075,0.431-1.053,0.935
			c0.002,0.038-0.074,0.038-0.076,0c-0.012-0.272,0.066-0.541,0.296-0.751c0.206-0.189,0.524-0.264,0.833-0.244
			C54.747,19.56,54.747,19.62,54.698,19.617"/>
	</g>
	<g>
		<defs>
			<rect id="SVGID_31_" width="100" height="100"/>
		</defs>
		<clipPath id="SVGID_32_">
			<use xlink:href="#SVGID_31_"  overflow="visible"/>
		</clipPath>
		<path clip-path="url(#SVGID_32_)" fill="none" stroke="#6A499D" stroke-width="0.5" stroke-miterlimit="10" d="M54.698,19.617
			c-0.706-0.046-1.075,0.431-1.053,0.935c0.002,0.038-0.074,0.038-0.076,0c-0.012-0.272,0.066-0.541,0.296-0.751
			c0.206-0.189,0.524-0.264,0.833-0.244C54.747,19.56,54.747,19.62,54.698,19.617z"/>
	</g>
	<g>
		<defs>
			<rect id="SVGID_33_" width="100" height="100"/>
		</defs>
		<clipPath id="SVGID_34_">
			<use xlink:href="#SVGID_33_"  overflow="visible"/>
		</clipPath>
		<path clip-path="url(#SVGID_34_)" fill="#6A499D" d="M53.569,20.551c-0.001-0.158-0.017-0.296-0.157-0.418
			c-0.12-0.105-0.254-0.2-0.398-0.285c-0.123-0.072-0.255-0.126-0.404-0.154c-0.094-0.018-0.221-0.019-0.302-0.064
			c-0.039-0.022-0.001-0.075,0.039-0.052c0.1,0.056,0.276,0.053,0.392,0.081c0.149,0.037,0.281,0.117,0.402,0.191
			c0.136,0.084,0.297,0.188,0.391,0.303c0.1,0.122,0.113,0.255,0.113,0.398C53.646,20.59,53.569,20.59,53.569,20.551"/>
	</g>
	<g>
		<defs>
			<rect id="SVGID_35_" width="100" height="100"/>
		</defs>
		<clipPath id="SVGID_36_">
			<use xlink:href="#SVGID_35_"  overflow="visible"/>
		</clipPath>
		<path clip-path="url(#SVGID_36_)" fill="none" stroke="#6A499D" stroke-width="0.5" stroke-miterlimit="10" d="M53.569,20.551
			c-0.001-0.158-0.017-0.296-0.157-0.418c-0.12-0.105-0.254-0.2-0.398-0.285c-0.123-0.072-0.255-0.126-0.404-0.154
			c-0.094-0.018-0.221-0.019-0.302-0.064c-0.039-0.022-0.001-0.075,0.039-0.052c0.1,0.056,0.276,0.053,0.392,0.081
			c0.149,0.037,0.281,0.117,0.402,0.191c0.136,0.084,0.297,0.188,0.391,0.303c0.1,0.122,0.113,0.255,0.113,0.398
			C53.646,20.59,53.569,20.59,53.569,20.551z"/>
	</g>
	<g>
		<defs>
			<rect id="SVGID_37_" width="100" height="100"/>
		</defs>
		<clipPath id="SVGID_38_">
			<use xlink:href="#SVGID_37_"  overflow="visible"/>
		</clipPath>
		<path clip-path="url(#SVGID_38_)" fill="#6A499D" d="M52.328,19.574c0.563-0.028,1.142-0.508,1.204-0.942
			c0.006-0.038,0.082-0.038,0.077,0c-0.068,0.468-0.672,0.972-1.281,1.002C52.279,19.636,52.279,19.576,52.328,19.574"/>
	</g>
	<g>
		<defs>
			<rect id="SVGID_39_" width="100" height="100"/>
		</defs>
		<clipPath id="SVGID_40_">
			<use xlink:href="#SVGID_39_"  overflow="visible"/>
		</clipPath>
		<path clip-path="url(#SVGID_40_)" fill="none" stroke="#6A499D" stroke-width="0.5" stroke-miterlimit="10" d="M52.328,19.574
			c0.563-0.028,1.142-0.508,1.204-0.942c0.006-0.038,0.082-0.038,0.077,0c-0.068,0.468-0.672,0.972-1.281,1.002
			C52.279,19.636,52.279,19.576,52.328,19.574z"/>
	</g>
	<g>
		<defs>
			<rect id="SVGID_41_" width="100" height="100"/>
		</defs>
		<clipPath id="SVGID_42_">
			<use xlink:href="#SVGID_41_"  overflow="visible"/>
		</clipPath>
		<polygon clip-path="url(#SVGID_42_)" fill="#FFFFFF" points="59.782,23.953 60.383,24.69 59.76,25.29 58.967,24.796 		"/>
	</g>
	<g>
		<defs>
			<rect id="SVGID_43_" width="100" height="100"/>
		</defs>
		<clipPath id="SVGID_44_">
			<use xlink:href="#SVGID_43_"  overflow="visible"/>
		</clipPath>
		<path clip-path="url(#SVGID_44_)" fill="#6A499D" d="M59.837,23.769c-0.009,0.479,0.509,0.931,1.133,0.924
			c0.049,0,0.049,0.06,0,0.06c-0.665,0.007-1.219-0.473-1.21-0.984C59.761,23.73,59.837,23.73,59.837,23.769"/>
	</g>
	<g>
		<defs>
			<rect id="SVGID_45_" width="100" height="100"/>
		</defs>
		<clipPath id="SVGID_46_">
			<use xlink:href="#SVGID_45_"  overflow="visible"/>
		</clipPath>
		<path clip-path="url(#SVGID_46_)" fill="none" stroke="#6A499D" stroke-width="0.5" stroke-miterlimit="10" d="M59.837,23.769
			c-0.009,0.479,0.509,0.931,1.133,0.924c0.049,0,0.049,0.06,0,0.06c-0.665,0.007-1.219-0.473-1.21-0.984
			C59.761,23.73,59.837,23.73,59.837,23.769z"/>
	</g>
	<g>
		<defs>
			<rect id="SVGID_47_" width="100" height="100"/>
		</defs>
		<clipPath id="SVGID_48_">
			<use xlink:href="#SVGID_47_"  overflow="visible"/>
		</clipPath>
		<path clip-path="url(#SVGID_48_)" fill="#6A499D" d="M60.926,24.753c-0.706-0.046-1.075,0.431-1.053,0.935
			c0.002,0.038-0.074,0.038-0.076,0c-0.012-0.272,0.066-0.541,0.296-0.751c0.206-0.189,0.524-0.264,0.833-0.244
			C60.975,24.696,60.975,24.756,60.926,24.753"/>
	</g>
	<g>
		<defs>
			<rect id="SVGID_49_" width="100" height="100"/>
		</defs>
		<clipPath id="SVGID_50_">
			<use xlink:href="#SVGID_49_"  overflow="visible"/>
		</clipPath>
		<path clip-path="url(#SVGID_50_)" fill="none" stroke="#6A499D" stroke-width="0.5" stroke-miterlimit="10" d="M60.926,24.753
			c-0.706-0.046-1.075,0.431-1.053,0.935c0.002,0.038-0.074,0.038-0.076,0c-0.012-0.272,0.066-0.541,0.296-0.751
			c0.206-0.189,0.524-0.264,0.833-0.244C60.975,24.696,60.975,24.756,60.926,24.753z"/>
	</g>
	<g>
		<defs>
			<rect id="SVGID_51_" width="100" height="100"/>
		</defs>
		<clipPath id="SVGID_52_">
			<use xlink:href="#SVGID_51_"  overflow="visible"/>
		</clipPath>
		<path clip-path="url(#SVGID_52_)" fill="#6A499D" d="M59.797,25.688c-0.001-0.158-0.017-0.296-0.157-0.418
			c-0.12-0.105-0.254-0.2-0.398-0.285c-0.123-0.072-0.255-0.126-0.404-0.154c-0.094-0.018-0.221-0.019-0.302-0.064
			c-0.039-0.022-0.001-0.075,0.039-0.052c0.1,0.056,0.276,0.053,0.392,0.081c0.149,0.037,0.281,0.117,0.402,0.191
			c0.136,0.084,0.297,0.188,0.391,0.303c0.1,0.122,0.113,0.255,0.113,0.398C59.874,25.727,59.797,25.727,59.797,25.688"/>
	</g>
	<g>
		<defs>
			<rect id="SVGID_53_" width="100" height="100"/>
		</defs>
		<clipPath id="SVGID_54_">
			<use xlink:href="#SVGID_53_"  overflow="visible"/>
		</clipPath>
		<path clip-path="url(#SVGID_54_)" fill="none" stroke="#6A499D" stroke-width="0.5" stroke-miterlimit="10" d="M59.797,25.688
			c-0.001-0.158-0.017-0.296-0.157-0.418c-0.12-0.105-0.254-0.2-0.398-0.285c-0.123-0.072-0.255-0.126-0.404-0.154
			c-0.094-0.018-0.221-0.019-0.302-0.064c-0.039-0.022-0.001-0.075,0.039-0.052c0.1,0.056,0.276,0.053,0.392,0.081
			c0.149,0.037,0.281,0.117,0.402,0.191c0.136,0.084,0.297,0.188,0.391,0.303c0.1,0.122,0.113,0.255,0.113,0.398
			C59.874,25.727,59.797,25.727,59.797,25.688z"/>
	</g>
	<g>
		<defs>
			<rect id="SVGID_55_" width="100" height="100"/>
		</defs>
		<clipPath id="SVGID_56_">
			<use xlink:href="#SVGID_55_"  overflow="visible"/>
		</clipPath>
		<path clip-path="url(#SVGID_56_)" fill="#6A499D" d="M58.556,24.71c0.563-0.028,1.142-0.508,1.204-0.942
			c0.006-0.038,0.082-0.038,0.077,0c-0.068,0.468-0.672,0.972-1.281,1.002C58.507,24.772,58.507,24.712,58.556,24.71"/>
	</g>
	<g>
		<defs>
			<rect id="SVGID_57_" width="100" height="100"/>
		</defs>
		<clipPath id="SVGID_58_">
			<use xlink:href="#SVGID_57_"  overflow="visible"/>
		</clipPath>
		<path clip-path="url(#SVGID_58_)" fill="none" stroke="#6A499D" stroke-width="0.5" stroke-miterlimit="10" d="M58.556,24.71
			c0.563-0.028,1.142-0.508,1.204-0.942c0.006-0.038,0.082-0.038,0.077,0c-0.068,0.468-0.672,0.972-1.281,1.002
			C58.507,24.772,58.507,24.712,58.556,24.71z"/>
	</g>
</g>
</svg>
